<?xml version="1.0" encoding="UTF-8" standalone="no"?><!DOCTYPE svg PUBLIC "-//W3C//DTD SVG 1.1//EN" "http://www.w3.org/Graphics/SVG/1.1/DTD/svg11.dtd"><svg width="100%" height="100%" viewBox="0 0 512 512" version="1.1" xmlns="http://www.w3.org/2000/svg" xmlns:xlink="http://www.w3.org/1999/xlink" xml:space="preserve" xmlns:serif="http://www.serif.com/" style="fill-rule:evenodd;clip-rule:evenodd;stroke-linejoin:round;stroke-miterlimit:2;"><rect id="Artboard1" x="0" y="0" width="512" height="512" style="fill:none;"/><g id="Artboard11" serif:id="Artboard1"><g id="Untitled--1024-x-1024-px-.png" serif:id="Untitled (1024 x 1024 px).png"><path d="M50.628,280.533c0.196,-1.437 0.161,-1.374 1.881,-18.031c2.046,-19.812 32.878,-83.508 37.992,-90.001c4.884,-6.201 24.447,-44.135 14.148,-59.09c-6.701,-9.73 -6.831,-9.607 -16.198,-16.838c-3.965,-3.061 -11.646,-2.192 -14.424,-5.726c-4.261,-5.421 2.842,-11.222 4.21,-13.517c3.154,-5.292 17.579,-24.096 18.65,-26.588c1.775,-4.131 7.36,-7.606 18.613,2.759c5.778,5.322 28.305,15.832 35.122,17.617c29.29,7.672 53.764,10.077 97.104,-19.271c9.077,-6.147 10.333,-4.943 19.409,1.115c30.817,20.57 36.367,19.678 57.407,23.116c7.378,1.205 28.415,-2.386 32.916,-3.746c13.449,-4.066 12.953,-5.134 14.232,-5.422c5.364,-1.206 5.193,-1.456 10.03,-3.988c22.996,-12.037 21.044,-17.491 28.782,-16.426c4.237,0.583 13.131,16.418 17.362,21.74c0.919,1.156 10.944,14.557 11.535,16.308c3.39,10.038 -7.162,7.655 -14.082,11.608c-10.601,6.056 -12.832,11.17 -14.848,13.321c-8.533,9.104 -5.536,32.538 6.655,54.246c17.268,30.746 16.891,30.852 26.705,52.635c7.077,15.709 6.378,15.925 9.958,24.026c0.778,1.761 5.842,13.22 6.669,23.127c2.806,33.638 3.116,41.321 -10.828,67.062c-1.74,3.213 -2.082,2.91 -3.902,6.066c-11.028,19.131 -34.813,36.191 -36.101,37.058c-18.614,12.541 -18.478,12.749 -20.22,13.626c-32.416,16.309 -62.989,19.736 -73.863,21.496c-37.091,6.003 -36.859,7.058 -40.09,7.516c-4.854,0.688 -4.868,1.032 -13.977,9.142c-5.815,5.177 -6.813,2.584 -11.734,-1.329c-8.122,-6.458 -9.699,-7.393 -17.361,-9.146c-3.272,-0.749 -52.089,-9.124 -54.882,-9.476c-11.602,-1.464 -89.118,-18.753 -120.605,-86.189c-5.233,-11.209 -4.409,-11.472 -6.264,-35.865c0.309,-1.477 0.315,-1.435 0.001,-2.934Z" style="fill:#e52923;fill-opacity:1;"/><path d="M250.518,217.057c36.942,-0.281 38.156,-20.403 42.982,-18.559c0.999,0.382 154.242,68.689 154.877,69.185c3.982,3.105 17.402,70.375 -76.687,114.249c-25.717,11.992 -54.442,14.427 -85.121,20.923c-15.671,3.318 -17.445,-0.111 -26.388,8.271c-2.311,2.166 -3.749,-3.496 0.216,-5.789c5.695,-3.295 5.521,-4.651 12.094,-3.785c8.328,1.098 20.769,-1.832 22.707,-4.291c6.39,-8.107 14.112,-5.206 14.162,-8.763c0.037,-2.663 -8.231,-2.519 -5.512,-5.736c13.487,-15.961 6.672,-20.283 12.055,-27.97c0.013,-0.018 4.906,-4.2 -1.384,-4.553c-9.526,-0.535 -12.629,4.49 -12.78,1.208c-0.077,-1.679 1.413,-8.115 -5.154,-5.709c-8.574,3.142 -8.957,8.063 -12.352,3.965c-4.312,-5.204 -14.376,8.216 -18.343,4.348c-4.307,-4.198 -4.109,-4.29 -8.464,-8.478c-0.214,-0.206 -2.204,-2.12 -3.644,-0.737c-9.837,9.447 -9.575,11.123 -12.409,10.001c-5.287,-2.092 -12.355,-10.285 -15.317,-4.535c-1.944,3.774 -6.355,-3.644 -14.521,-5.055c-5.529,-0.955 -1.125,8.719 -4.059,7.646c-14.737,-5.388 -15.306,-0.585 -14.577,0.324c7.851,9.789 3.861,18.769 10.994,26.962c0.912,1.048 5.904,4.437 -0.322,5.727c-4.183,0.867 -2.162,3.858 -0.97,4.374c6.66,2.881 7.783,1.165 12.372,6.849c2.297,2.845 15.06,5.215 21.543,4.49c1.118,-0.125 4.562,-2.557 14.642,4.288c4.46,3.029 3.59,6.946 1.529,5.293c-13.176,-10.561 -15.367,-5.013 -36.128,-10.116c-16.444,-4.042 -86.976,-7.861 -131.694,-58.889c-1.043,-1.19 -14.233,-20.056 -18.495,-30.643c-6.214,-15.434 -7.251,-41.706 -0.736,-44.769c52.366,-24.617 135.209,-61.685 147.005,-66.963c7.33,-3.28 4.642,6.692 20.048,13.241c8.611,3.661 17.336,3.927 17.829,3.995Z" style="fill:#fefefe;fill-opacity:1;"/><path d="M208.527,86.561c2.368,-1.249 2.254,-1.314 5.141,-2.711c39.699,-19.206 38.282,-21.88 41.923,-23.061c2.48,-0.805 28.716,20.051 49.831,24.083c54.955,10.492 93.683,-18.16 100.302,-23.057c2.478,-1.833 3.097,-0.206 16.319,18.014c3.203,4.414 0.062,4.505 -2.421,5.883c-10.64,5.908 -20.084,17.324 -22.727,24.927c-8.941,25.719 7.428,49.417 4.576,50.635c-0.663,0.283 -17.651,-15.013 -18.95,-15.802c-6.633,-4.033 -3.509,11.06 -3.659,17.057c-0.121,4.844 -4.338,0.222 -26.672,-17.596c-5.131,-4.094 -2.802,13.174 -3.098,16.517c-0.289,3.266 -3.24,-0.199 -6.244,-2.41c-1.532,-1.127 -18.846,-13.87 -19.221,-13.996c-5.246,-1.767 1.015,26.603 -4.935,24.046c-1.84,-0.791 -0.39,-32.579 -0.848,-36.63c-0.329,-2.914 -8.139,-2.281 -9.309,-1.871c-2.858,1.002 0.474,33.131 -1.981,36.963c-4.275,6.674 -3.327,-5.687 -3.285,-45.048c0.004,-3.871 -4.317,-3.16 -12.758,-2.88c-2.873,0.095 -2.021,7.254 -2.021,14.879c-0.001,47.109 1.627,50.611 -2.051,49.201c-10.745,-4.117 -10.674,-4.147 -22.008,-6.046c-2.335,-0.391 -0.746,-1.373 -0.196,-4.192c0.879,-4.506 -3.931,-7.164 -3.56,-21.96c0.191,-7.61 -21.392,5.456 -13.733,21.774c4.588,9.775 -9.927,-1.576 -27.283,12.426c-11.509,9.285 -15.892,7.958 -20.252,10.646c-6.497,4.006 -7.126,2.118 -17.944,5.02c-2.491,0.668 -23.733,6.368 -31.896,4.728c-0.724,-0.146 -1.914,-0.21 -1.449,-13.651c0.144,-4.177 11.272,2.161 19.376,2.284c11.859,0.179 8.914,-9.464 9.27,-13.187c0.724,-7.554 22.218,-0.873 26.436,-5.306c3.587,-3.769 -3.259,-9.647 6.346,-11.515c4.306,-0.837 3.622,-7.159 13.983,-6.622c8.222,0.426 4.43,-4.133 5.279,-13.545c0.223,-2.47 15.307,-2.672 17.419,-0.74c0.288,0.263 5.735,5.246 4.873,-0.265c-1.322,-8.45 -6.311,-6.148 -9.533,-6.277c-3.413,-0.137 4.356,-5.111 -0.509,-11.348c-2.789,-3.576 -0.731,-5.236 -4.682,-7.154c-4.767,-2.315 -3.22,10.36 -3.371,14.721c-0.208,6.023 -6.047,2 -8.511,6.004c-3.644,5.92 2.917,12.428 -5.008,12.711c-7.451,0.267 -9.257,6.441 -13.031,6.879c-9.818,1.139 -5.099,6.036 -7.899,11.449c-1.496,2.893 -26.619,-4.091 -27.128,9.962c-0.192,5.305 -2.767,3.078 -7.891,1.865c-13.483,-3.191 -13.642,-5.036 -27.083,-1.29c-3.225,0.899 2.124,-5.879 2.46,-6.304c1.159,-1.628 7.465,-12.178 8.456,-12.52c2.896,-1 1.847,1.109 2.939,5.326c0.838,3.236 3.684,-1.502 5.8,0.369c5.945,5.253 0.342,-11.271 7.344,-9.311c4.832,1.353 9.383,10.668 9.719,11.206c4.69,7.518 1.185,-2.115 1.115,-2.308c-1.282,-3.523 -2.98,-4.055 -0.64,-5.673c1.026,-0.709 1.332,-0.439 1.551,0.773c1.384,7.669 3.758,6.28 3.966,5.761c0.399,-0.999 -8.021,-24.725 -8.777,-26.855c-0.41,-1.155 -4.98,-14.033 0.008,-15.32c3.753,-0.968 5.273,0.389 34.988,-12.99c0.299,-0.135 18.647,-9.549 2.209,-3.457c-20.269,7.511 -19.997,10.901 -31.976,8.437c-7.567,-1.557 32.224,-16.766 34.597,-19.011c7.422,-7.021 -22.376,7.893 -26.904,9.87c-10.467,4.568 -15.398,-1.528 -14.987,-2.629c0.368,-0.985 26.627,-11.77 40.207,-19.875Z" style="fill:#fefefe;"/><path d="M372.369,451.001c-52.888,12.234 -133.846,25.541 -236.793,-1.79c-5.552,-1.474 -49.51,-13.144 -68.272,-22.256c-4.854,-2.357 -2.8,-5.712 -2.396,-16.439c0.141,-3.731 -4.511,-4.258 -26.262,-14.327c-0.567,-0.262 -9.527,-4.41 -5.213,-5.807c9.805,-3.173 20.871,-2.736 19.613,-7.777c-2.484,-9.956 -9.062,-22.242 -6.579,-23.169c0.519,-0.194 0.852,-0.835 35.158,14.78c23.448,10.672 30.874,12.693 30.909,16.282c0.146,14.99 -2.223,17.801 3.829,19.496c6.462,1.809 61.63,20.626 139.142,23.08c51.892,1.643 117.9,-16.268 127.882,-18.976c13.568,-3.681 15.699,-4.362 15.761,-6.613c0.448,-16.154 -2.303,-18.116 3.441,-20.782c24.144,-11.205 53.431,-23.761 58.105,-25.764c8.73,-3.743 4.126,5.151 -1.032,18.626c-1.444,3.773 -2.942,5.751 2.78,7.166c10.468,2.588 20.382,3.862 16.016,7.717c-1.959,1.73 -2.678,0.282 -29.851,13.272c-5.536,2.647 3.207,16.8 -3.301,19.317c-43.396,16.783 -64.549,21.77 -72.938,23.964Z" style="fill:#1d4720;fill-opacity:0.99;"/><path d="M274.512,460.965c-49.179,1.181 -74.669,-0.296 -136.937,-14.748c-9.231,-2.143 -67.942,-19.986 -69.358,-23.589c-0.514,-1.308 -0.317,-7.992 0.171,-25.131c0.143,-5.027 2.725,-2.462 7.249,-0.283c57.199,27.544 75.013,21.857 89.972,30.091c0.91,0.501 71.444,15.497 141.841,5.878c6.375,-0.871 29.965,-2.449 84.013,-17.808c31.083,-8.833 33.83,-14.262 39.888,-16.269c10.305,-3.413 11.869,-5.358 11.958,-2.581c0.834,26.021 0.924,26.546 -0.979,27.68c-3.888,2.318 -85.317,35.072 -165.814,36.725c-0.668,0.014 -1.336,0.021 -2.004,0.034Z" style="fill:#fefefe;fill-opacity:1;"/><path d="M215.884,231.546c0.028,-0.727 -0.599,-5.197 1.676,-5.866c1.567,-0.461 9.388,-1.071 11.941,-1.167c28.027,-1.061 25.66,8.968 27.967,9.165c3.136,0.268 0.253,-12.726 32.981,-7.855c8.594,1.279 6.368,4.485 6.438,12.683c0.006,4.678 0.012,9.356 0.017,14.034c0.008,3.987 0.016,7.975 0.024,11.962c-0.027,2.15 0.573,10.461 -1.448,10.93c-1.25,0.29 -1.209,0.045 -15.977,-1.351c-5.004,0.049 -5.035,-0.586 -9.913,0.761c-6.62,1.828 -8.564,3.753 -9.014,3.901c-0.713,0.234 -2.462,0.242 -1.72,-9.221c0.212,-2.704 5.044,-0.238 5.518,-3.045c1.395,-8.259 -3.457,-5.264 -11.797,-6.329c-1.769,-0.226 -3.348,-5.103 0.914,-5.069c6.589,0.053 9.982,0.801 8.238,-5.643c-0.833,-3.075 -2.122,-1.346 -8.267,-1.506c-2.245,-0.058 -5.193,-4.025 1.037,-4.156c7.469,-0.156 11.11,1.163 9.965,-6.268c-0.243,-1.58 -0.849,-2.11 -19.958,-0.913c-2.397,0.15 -3.122,1.226 -2.775,29.886c0.038,3.114 9.306,1.522 9.788,1.5c6.024,-0.276 4.654,2.448 4.546,8.5c-0.069,3.848 -2.041,1.431 -5.488,-0.167c-7.463,-2.53 -12.17,-2.882 -24.121,-1.064c-6.1,0.095 -7.924,3.705 -10.525,-1.801c-0.032,-10.312 -0.065,-20.624 -0.097,-30.937c0.016,-3.655 0.031,-7.31 0.047,-10.965Z" style="fill:#fefefe;"/><path d="M99.876,202.491c0.441,18.375 0.847,18.727 -1.377,21.008c-3.096,3.177 -29.52,27.774 -30.161,25.148c-0.226,-0.925 15.62,-40.016 23.368,-54.036c13.568,-24.551 14.845,-23.894 24.553,-50.216c0.637,-1.728 3.511,-1.806 22.128,-6.37c4.073,-0.998 8.969,-3.102 7.773,0.372c-4.828,14.014 -7.785,22.238 -8.479,24.165c-2.449,6.81 -4.066,18.603 -8.157,19.997c-3.669,1.25 -24.976,6.694 -25.094,6.738c-6.379,2.366 -4.616,9.51 -4.554,13.194Z" style="fill:#fefefe;"/><path d="M145.121,106.144c-3.362,1.933 -3.463,1.706 -3.744,1.889c-6.311,2.518 -19.021,8.017 -21.979,9.098c-3.784,1.384 -1.674,-4.651 -4.29,-9.43c-7.253,-13.25 -22.938,-22.208 -25.343,-23.582c-1.74,-0.994 -0.915,-1.974 13.097,-21.353c3.612,-4.996 8.014,5.453 32.764,15.42c27.447,11.053 47.254,7.094 40.545,10.864c-15.892,8.931 -16.385,9.321 -17.347,8.128c-3.324,-4.123 -2.246,3.272 -13.705,8.966Z" style="fill:#fefefe;"/><path d="M243.362,125.063c-1.221,-2.728 -0.33,-2.891 2.447,-7.492c2.907,-4.816 -3.547,0.491 -4.512,0.365c-2.53,-0.329 5.807,-8.675 0.125,-5.797c-0.871,0.441 -10.781,5.46 -10.908,5.484c-7.991,1.474 9.339,-7.257 9.432,-8.064c0.411,-3.564 -8.01,2.961 -7.008,0.017c0.954,-2.803 6.418,-4.188 6.431,-4.2c4.66,-4.329 -16.239,-1.108 -13.63,-4.664c1.794,-2.446 4.624,2.052 8.952,-4.08c1.859,-2.633 4.786,-0.54 5.99,-0.857c4.361,-1.148 -11.547,-7.864 -10.866,-10.172c0.768,-2.607 17.472,10.314 9.703,1.888c-2.298,-2.491 1.196,-2.708 4.048,-0.073c8.593,7.938 -3.507,-11.798 -2.73,-12.606c2.289,-2.382 10.457,16.882 8.075,5.713c-0.142,-0.664 1.261,-3.04 3.278,1.148c5.335,11.076 3.138,-10.407 4.257,-11.249c2.547,-1.916 2.013,11.096 2.431,11.829c1.501,2.638 2.594,-4.18 2.831,-4.294c3.138,-1.508 0.618,7.185 0.85,7.496c2.408,3.234 8.512,-11.354 10.115,-11.613c3.673,-0.595 -3.001,7.788 -4.093,10.673c-1.103,2.913 1.962,2.105 3.584,-0.491c1.573,-2.517 3.153,0.9 0.8,2.946c-14.796,12.86 10.904,-2.555 11.475,-2.272c2.052,1.017 -2.52,3.725 -2.854,3.923c-3.601,2.133 -4.578,2.759 -4.969,3.009c-5.005,3.207 5.644,1.48 4.414,3.69c-0.429,0.77 -6.427,2.25 -6.446,2.27c-2.983,3.153 11.419,2.362 12.953,2.851c6.046,1.929 -11.048,2.53 -11.324,2.779c-2.446,2.209 5.453,3.765 5.517,4.16c0.609,3.734 -7.832,-0.904 -9.122,-0.519c-2.876,0.858 4.825,4.939 7.726,6.869c0.286,0.19 5.595,3.721 2.166,3.714c-0.065,-0 -17.486,-10.414 -8.256,-1.715c2.135,2.012 -0.327,3.345 -2.475,1.434c-10.956,-9.749 2.445,9.355 1.454,11.2c-1.238,2.305 -4.521,-5.168 -7.082,-9.575c-3.974,-6.838 -0.717,5.018 -1.622,5.741c-2.855,2.285 -3.057,-8.823 -5.587,-7.651c-0.634,0.294 -0.88,14.595 -1.763,15.238c-2.772,2.021 -1.157,-12.105 -1.6,-12.674c-1.681,-2.164 -2.488,4.433 -2.542,4.869c-0.285,2.331 -3.226,0.206 -2.403,-3.8c1.834,-8.929 -3.357,0.575 -7.261,4.554Z" style="fill:#ef8217;"/><path d="M279.503,274.081l0.431,1.419c0.425,7.408 -3.243,5.319 -17.342,9.307c-10.189,2.882 -12.285,1.505 -13.092,2.194c-0.525,0.448 -0.694,1.226 -1.219,1.673c-1.163,-0.731 -1.303,-2.801 -22.728,1.322c-0.728,-1.998 -0.933,-2.661 1.18,-3.071c2.503,-0.487 2.299,-1.011 4.752,-1.494c7.221,-1.422 6.775,-2.828 13.967,-4.182c3.901,-0.734 3.887,-1.213 5.128,-4.938c3.447,1.599 5.419,4.015 5.488,0.167c0.109,-6.052 1.478,-8.776 -4.546,-8.5c-0.482,0.022 -9.751,1.614 -9.788,-1.5c-0.347,-28.66 0.378,-29.736 2.775,-29.886c19.109,-1.197 19.715,-0.667 19.958,0.913c1.145,7.431 -2.496,6.112 -9.965,6.268c-6.23,0.13 -3.282,4.097 -1.037,4.156c6.145,0.16 7.434,-1.569 8.267,1.506c1.745,6.444 -1.649,5.696 -8.238,5.643c-4.262,-0.034 -2.683,4.843 -0.914,5.069c8.34,1.065 13.192,-1.93 11.797,6.329c-0.474,2.807 -5.306,0.341 -5.518,3.045c-0.742,9.464 1.006,9.455 1.72,9.221c0.45,-0.147 2.394,-2.073 9.014,-3.901c4.878,-1.347 4.909,-0.712 9.913,-0.761Z" style="fill:#9a2d1d;fill-opacity:1;"/><path d="M310.1,253.524c1.236,25.428 1.777,37.081 -7.6,36.982c-29.601,-0.312 -31.272,-6.829 -37.379,-0.332c-1.35,1.436 -8.842,1.437 -9.621,1.437c-5.074,0.001 -4.963,-0.636 -7.219,-2.937c0.525,-0.448 0.694,-1.226 1.219,-1.673c0.807,-0.688 2.903,0.689 13.092,-2.194c14.099,-3.989 17.767,-1.899 17.342,-9.307l-0.431,-1.419c14.768,1.396 14.728,1.641 15.977,1.351c2.021,-0.469 1.421,-8.779 1.448,-10.93c0.33,0.426 -0.283,0.499 0.073,0.959c0.09,0.117 0.627,0.81 1.499,1.071c9.859,2.957 7.411,-9.171 10.522,-12.032l1.078,-0.976Z" style="fill:#0b100d;"/><path d="M94.476,387.945c-10.14,-0.019 -10.076,-0.049 -10.952,-0.021c-14.784,0.475 -14.766,0.194 -16.045,0.297c-4.198,0.339 -1.991,2.507 -2.278,14.229c-0.012,0.475 -0.211,2.267 -5.925,-0.467c-18.262,-8.74 -18.759,-8.567 -18.674,-9.452c0.1,-1.044 14.227,-3.578 15.78,-4.326c5.778,-2.782 -8.78,-24.245 -3.887,-23.564c0.673,0.094 34.853,15.753 37.877,17.138c2.965,1.358 18.066,6.403 4.105,6.166Z" style="fill:#fefefe;fill-opacity:1;"/><path d="M410.739,386.753c15.887,-5.473 48.295,-22.734 49.401,-21.043c1.247,1.907 -10.227,21.282 -4.661,22.843c11.458,3.214 20.779,2.977 13.119,6.135c-10.738,4.428 -22.01,11.965 -22.115,7.813c-0.089,-3.544 0.051,-3.462 -0.021,-7.002c-0.107,-5.309 0.425,-7.081 -4.95,-7.252c-12.12,-0.386 -27.557,-0.034 -29.952,0.02c-1.094,0.025 -0.885,-0.366 -0.823,-1.514Z" style="fill:#fefefe;fill-opacity:1;"/><path d="M349.505,113.551c-1.841,-0.065 -1.872,0.039 -1.988,-0.07c-1.73,-1.62 -0.597,-19.34 -0.489,-21.019c0.187,-2.92 2.006,-2.36 19.472,-2.336c5.402,0.007 8.079,-2.083 8.04,3.374c-0.123,16.898 -0.139,19.318 -0.98,20.076c-0.446,0.401 -15.059,-3.372 -24.054,-0.025Z" style="fill:#254c9a;"/><path d="M256.502,88.115c24.492,2.615 10.273,35.793 -7.702,23.957c-7.392,-4.868 -9.574,-22.177 7.702,-23.957Z" style="fill:#f3e721;"/><path d="M215.884,231.546c-4.808,1.526 -4.645,1.775 -8.231,5.229c-0.246,0.236 -2.295,1.615 -2.498,1.751c-0.043,-6.607 -1.139,-13.194 2.329,-13.384c5.111,-0.281 13.367,-5.112 38.021,-2.685c10.642,1.048 9.914,7.085 12.941,4.963c16.419,-11.511 31.351,-2.814 49.054,-2.432c4.371,0.094 2.974,8.237 2.974,9.512l-0.974,0.278c-3.31,1.371 -6.332,2.639 -12.613,3.727c-0.07,-8.198 2.155,-11.404 -6.438,-12.683c-32.728,-4.871 -29.845,8.123 -32.981,7.855c-2.307,-0.197 0.06,-10.227 -27.967,-9.165c-2.553,0.097 -10.374,0.706 -11.941,1.167c-2.274,0.669 -1.648,5.139 -1.676,5.866Z" style="fill:#72a426;"/><path d="M256.214,183.079c12.548,-6.499 30.239,4.655 30.521,5.301c2.756,6.32 -10.343,8.334 -25.98,-0.342c-4.482,-2.487 -4.676,-3.437 -10.156,-1.284c-25.85,10.159 -30.165,3.299 -26.841,-0.023c1.606,-1.605 21.626,-10.625 30.647,-4.084c0.12,0.087 0.602,0.437 1.809,0.432Z" style="fill:#fefefe;"/><path d="M276.024,250.424c-1.207,13.972 5.507,14.237 8.055,9.8c1.321,-2.301 11.091,0.292 6.058,7.017c-7.654,10.228 -29.05,-1.905 -22.532,-21.7c5.057,-15.359 24.742,-5.476 24.409,5.941c-0.061,2.099 -7.157,1.554 -7.943,-0.842c-0.198,-0.605 -2.715,-8.283 -6.312,-4.84c-1.379,1.32 -0.909,1.507 -1.736,4.625Z" style="fill:#e52c1f;"/><path d="M366.537,213.94c8.385,-2.051 -1.514,-5.952 -0.254,-9.59c0.36,-1.038 4.982,1.622 5.376,1.849c4.891,2.816 3.474,-5.694 4.809,-6.748c3.062,-2.42 1.266,1.525 3.228,4.955c2.332,4.078 5.928,-1.017 6.94,-1.661c4.673,-2.971 0.428,4.592 0.235,4.936c-2.662,4.742 6.161,4.141 6.684,4.768c2.707,3.247 -1.751,1.365 -5.267,3.668c-3.523,2.308 2.397,6.756 2.505,7.3c0.941,4.737 -6.135,-1.493 -7.376,-1.279c-1.185,0.205 -1.707,4.929 -1.757,5.379c-0.562,5.086 -3.55,2.505 -3.968,-0.054c-1.422,-8.71 -6.016,-0.873 -8.167,-0.653c-2.569,0.263 0.339,-4.262 0.538,-4.572c2.765,-4.303 -0.465,-4.185 -5.575,-4.683c-0.331,-0.032 -4.67,-2.842 2.05,-3.617Z" style="fill:#fefdfd;"/><path d="M109.561,235.933c-6.138,1.251 -4.525,3.435 -8.301,8.393c-0.669,0.878 -1.389,1.824 -11.73,7.259c-6.73,3.537 7.385,-15.269 10.387,-17.599c10.164,-7.887 15.596,-3.715 18.391,-17.519c2.395,-11.825 5.778,0.38 10.414,3.787c4.853,3.566 -11.166,4.16 -9.427,9.359c0.532,1.591 15.809,-4.247 15.468,-0.073c-0.07,0.859 -8.541,5.255 -13.295,5.544c-5.988,0.363 -5.91,0.421 -11.908,0.849Z" style="fill:#fefefe;"/><path d="M424.556,233.077c-3.536,-0.47 -4.722,-1.925 -5.76,1.5c-0.153,0.504 1.758,5.449 0.41,6.612c-2.072,1.788 -1.719,-0.452 -4.039,-4.468c-2.048,-3.545 -3.083,-1.035 -5.066,2.538c-3.097,5.579 -0.345,-7.542 -6.564,-6.547c-8.55,1.367 -1.225,-3.918 -0.951,-4.115c3.603,-2.599 -4.142,-6.668 -4.215,-7.063c-0.697,-3.762 11.005,2.015 8.804,-3.936c-0.147,-0.398 -3.346,-9.045 1.353,-5.133c2.329,1.939 3.811,8.699 7.807,0.938c1.045,-2.029 4.192,-1.87 3.25,1.121c-0.317,1.006 -0.733,1.979 -1.034,2.99c-1.39,4.668 7.53,1.953 7.929,2.038c4.721,1.01 -8.423,6.047 -3.114,9.154c0.313,0.183 7.875,4.61 1.19,4.372Z" style="fill:#fdfdfd;"/><path d="M144.933,195.515c-0.087,0.077 0.656,0.72 -2.373,2.003c-0.03,-0.437 0.451,-2.723 -1.992,-0.903c-1.218,0.908 -4.919,5.342 1.876,5.812c0.868,0.027 1.737,0.053 2.605,0.08c-0.368,2.328 0.696,3.323 -1.604,3.633c-7.741,1.042 -22.087,-2.087 -23.97,-2.497c-7.437,-1.622 -11.881,13.943 -14.18,15.535c-2.093,1.449 -1.616,-7.666 -1.679,-9.68c-0.19,-6.096 -1.857,-8.025 3.987,-9.546c35.034,-9.117 36.914,-10.53 37.215,-7.507c0.102,1.019 0.014,2.052 0.115,3.071Z" style="fill:#fefefe;"/><path d="M374.158,122.285c-7.48,0.697 2.105,2.387 2.133,2.413c3.372,3.303 -7.822,2.392 -16.788,2.476c-2.959,0.028 -18.776,-0.867 -13.896,2.149c0.676,0.418 32.274,-0.992 33.618,1.331c0.229,0.396 3.256,5.627 -0.736,5.675c-2.876,0.035 -34.084,0.409 -35.951,0.025c-2.236,-0.46 -0.635,-12.031 1.919,-12.328c1.193,-0.139 0.987,1.682 14.975,0.997c3.703,-0.181 3.496,-1.504 8.116,-1.28c1.246,0.061 1.666,-0.151 1.116,-1.269c-0.216,-0.439 -0.875,-0.537 -1.102,-0.971c-1.014,-1.94 7.944,-2.269 7.456,-0.058c-0.086,0.391 -0.773,0.449 -0.86,0.84Z" style="fill:#254b9a;"/><path d="M226.458,275.248c11.951,-1.818 16.658,-1.466 24.121,1.064c-1.24,3.726 -1.227,4.204 -5.128,4.938c-7.191,1.353 -6.745,2.76 -13.967,4.182c-2.453,0.483 -2.25,1.007 -4.752,1.494c-2.113,0.411 -1.908,1.074 -1.18,3.071c-1.686,0.243 -19.243,1.478 -20.112,-0.464c-0.198,-0.443 -0.026,-0.446 -0.353,-6.06c11.931,1.747 17.368,-2.391 20.964,-6.973l0.407,-1.252Z" style="fill:#376e2c;fill-opacity:1;"/><path d="M218.905,245.495c0.256,-4.637 1.042,-4.772 5.652,-5.732c6.907,-1.439 14.313,-3.933 14.702,-1.201c1.165,8.171 -3.515,6.938 -4.653,7.269c-3.25,0.947 -0.144,21.893 -1.997,23.781c-0.708,0.722 -5.68,1.571 -6.115,1.5c-3.063,-0.507 -1.454,-2.068 -1.606,-19.611c-0.045,-5.119 -2.411,-2.996 -4.385,-2.804c-1.775,0.173 -1.087,-0.773 -1.599,-3.201Z" style="fill:#e62c1f;"/><path d="M215.836,242.511c0.032,10.312 0.065,20.624 0.097,30.937l-1.434,1.393c-4.657,1.524 -4.71,1.05 -9.416,2.626c-0.002,-9.652 -0.004,-19.303 -0.005,-28.955c5.767,-2.486 6.169,-1.783 10.758,-6.001Z" style="fill:#8ebe20;"/><path d="M243.384,361.425c1.597,0.881 1.623,1.663 2.912,0.679c3.496,-2.669 3.732,-2.391 13.18,-2.313c4.094,0.034 3.556,1.878 8.278,2.629c0.64,3.135 1.844,4.77 -1.118,11.167c-2.367,-0.549 -2.325,-0.717 -3.417,-2.952c-3.113,-6.372 -4.294,0.166 -5.565,2.993c-3.569,7.935 -1.007,-3.771 -0.936,-4.099c1.115,-5.097 -1.998,-3.467 -2.114,-2.984c-2.463,10.274 -5.441,8.486 -5.695,7.759c-1.494,-4.267 -2.694,-1.152 -2.699,-0.924c-0.049,2.328 0.06,2.294 -0.935,4.425c-0.84,-1.131 -0.859,-1.11 -0.907,-1.222c-3.842,-9 -1.497,-14.054 -0.985,-15.157Z" style="fill:#f5b8d4;fill-opacity:1;"/><path d="M295.531,126.15c2.914,1.081 2.301,2.116 2.301,26.35c0,24.149 0.887,26.973 -3.3,26.518c-2.681,-0.291 -2.23,-1.683 -2.23,-38.518c0,-10.664 -1.269,-13.798 3.229,-14.35Z" style="fill:#fefefe;"/><path d="M298.888,353.51c-0.253,2.353 -2.359,21.933 -9.312,28.078c-1.634,1.444 -2.346,-0.174 -1.904,-1.021c0.331,-0.634 2.483,-1.586 4.192,-10.991c0.476,-2.622 -2.734,-3.742 -3.324,-1.063c-0.212,0.964 -3.386,15.365 -5.804,10.889c-0.387,-0.716 1.993,-0.267 2.336,-9.906c0.433,-12.186 -0.804,-12.949 1.728,-14.547c10.786,-6.811 11.485,-6.523 11.863,-5.546c0.119,0.307 0.017,0.304 0.226,4.107Z" style="fill:#fefbfc;"/><path d="M206.446,84.591c-0.173,0.235 0.493,0.58 0.32,0.815c-0.571,0.774 -23.292,11.031 -25.335,11.952c-13.55,6.116 -13.733,7.369 -16.666,5.813c-1.78,-1.778 -1.78,-1.756 -1.922,-1.92c-1.725,-1.985 0.13,-1.849 2.41,-3.176c16.278,-9.472 15.773,-11.125 26.224,-11.906c7.58,-0.567 7.46,-1.002 14.968,-1.578Z" style="fill:#fefefe;"/><path d="M351.936,101.5c0.105,-4.728 0.08,-4.699 0.113,-5.106c0.107,-1.316 0.569,-1.971 16.438,-1.542c2.369,0.064 2.809,2.561 2.365,12.705c-0.096,2.197 -3.578,1.768 -16.347,1.749c-4.579,-0.007 -2.276,-2.435 -2.569,-7.806Z" style="fill:#fefefe;"/><path d="M213.019,362.599c-0.182,-1.064 -2.105,-12.281 -0.806,-13.475c0.733,-0.674 1.179,-0.843 11.096,5.635c2.896,1.892 1.497,2.666 1.814,10.757c0.255,6.503 3.129,12.698 1.307,13.527c-3.567,1.622 -1.768,-11.044 -5.998,-13.375c-3.833,-2.113 -0.863,4.456 -0.703,5.803c0.878,7.399 1.663,7.275 1.381,7.846c-0.658,1.332 -3.645,1.452 -8.091,-16.718Z" style="fill:#fcebf3;fill-opacity:1;"/><path d="M247.172,385.051c2.67,0.609 2.716,0.487 2.881,0.657c2.891,2.987 7.894,1.045 10.349,0.409c3.14,-0.813 7.628,3.324 7.191,8.342c-4.455,0.3 -4.859,4.905 -6.728,1.809c-1.369,-2.267 -1.993,0.213 -4.31,-0.063c-4.112,-0.49 -8.753,3.273 -11.749,-2.052c-1.159,-2.059 -1.991,-0.607 -2.144,-0.602c1.736,-3.598 0.41,-4.37 4.511,-8.501Z" style="fill:#eb65a2;fill-opacity:1;"/><path d="M266.636,373.586c-0.157,0.756 -1.451,6.973 -4.996,8.253c-8.96,3.236 -12.324,1.274 -13.241,0.739c-2.132,-1.99 -1.819,-2.131 -3.122,-4.775c0.995,-2.131 0.886,-2.097 0.935,-4.425c0.005,-0.228 1.205,-3.343 2.699,0.924c0.254,0.727 3.232,2.515 5.695,-7.759c0.116,-0.483 3.229,-2.112 2.114,2.984c-0.072,0.329 -2.634,12.034 0.936,4.099c1.271,-2.826 2.453,-9.364 5.565,-2.993c1.092,2.235 1.049,2.403 3.417,2.952Z" style="fill:#eb65a2;fill-opacity:1;"/><path d="M323.435,115.083c-5.015,0.689 -6.05,-0.746 -8.679,3.584c-0.174,0.287 -2.712,11.864 -3.248,4.832c-1.634,-21.42 18.037,-12.939 21.96,-25.017c0.517,-1.591 2.446,-1.65 2.095,1.017c-1.993,15.13 -11.316,15.364 -12.129,15.586Z" style="fill:#ad4024;"/><path d="M238.895,366.56c-0.174,4.488 -0.091,4.411 0.233,8.902c0.144,1.99 -2.468,1.283 -2.869,-1.906c-1.05,-8.356 -4.073,-6.321 -4.274,-5.782c-0.173,0.461 4.93,19.483 -1.253,6.614c-2.706,-5.632 -3.607,-24.328 -0.343,-22.566c10.521,5.678 10.326,6.683 10.131,7.681c-0.111,0.569 -0.336,0.472 -1.626,7.057Z" style="fill:#fefcfd;fill-opacity:1;"/><path d="M310.474,234.5c-0.008,0.959 -0.018,0.948 -0.165,11.992l-0.809,0.672c-4.197,3.658 -3.339,7.281 -12.595,5.376c-0.006,-4.678 -0.012,-9.356 -0.017,-14.034c6.281,-1.088 9.303,-2.356 12.613,-3.727l0.974,-0.278Z" style="fill:#66a92e;"/><path d="M113.659,340.675c0.498,-0.362 5.029,-3.652 6.901,-3.412c5.102,0.652 -6.786,5.114 -1.956,6.984c0.2,0.078 11.79,-3.397 3.122,2.578c-2.627,1.811 -0.234,4.52 1.83,3.931c8.128,-2.323 3.73,-6.001 2.666,-13.214c-1.329,-9.016 4.172,-1.052 11.95,8.174c1.346,1.596 -0.393,3.065 -2.384,1.407c-0.275,-0.229 -3.788,-3.153 -4.453,0.342c-0.978,5.133 -2.404,4.192 -7.092,6.555c-3.778,1.904 -3.714,-0.426 -9.978,-11.296c-0.105,-0.13 -1.441,0.263 -1.199,-1.483c0.038,-0.271 0.556,-0.295 0.594,-0.566Z" style="fill:#070809;"/><path d="M277.499,196.927c4.611,-0.19 4.481,-0.445 9.012,-1.321c1.759,-0.34 2.21,2.28 -0.931,3.133c-17.888,4.855 -27.445,-7.73 -32.954,-5.854c-2.16,0.736 -20.763,9.21 -32.002,3.389c-2.178,-1.128 -1.219,-3.069 0.815,-2.496c21.083,5.939 30.051,-6.812 34.925,-4.032c7.211,4.113 9.797,6.549 21.135,7.182Z" style="fill:#fdfbfb;"/><path d="M281.925,359.5c-0.556,19.045 -4.478,19.245 -5.119,17.901c-0.253,-0.53 4.014,-11.287 -0.348,-8.969c-0.958,0.509 -3.381,8.812 -4.09,4.125c-2.139,-14.143 -1.945,-14.456 -0.948,-15.149c8.891,-6.176 9.439,-5.542 10.022,-4.867c0.604,0.699 0.3,0.821 0.482,6.959Z" style="fill:#fefcfd;"/><path d="M146.875,129.52c-0.667,6.395 -3.102,4.65 -9.315,6.213c-19.061,4.797 -20.316,5.408 -20.163,3.774c0.409,-4.373 0.97,-4.528 5.172,-5.784c11.118,-3.323 11.084,-3.188 21.976,-7.043c2.985,-1.056 2.321,2.061 2.33,2.84Z" style="fill:#fefefe;"/><path d="M310.309,246.492c-0.07,2.344 -0.14,4.688 -0.21,7.032l-1.078,0.976c-3.111,2.861 -0.663,14.989 -10.522,12.032c-0.872,-0.262 -1.409,-0.955 -1.499,-1.071c-0.356,-0.46 0.257,-0.533 -0.073,-0.959c-0.008,-3.987 -0.016,-7.975 -0.024,-11.962c9.257,1.906 8.398,-1.717 12.595,-5.376l0.809,-0.672Z" style="fill:#184d23;"/><path d="M205.077,375.849c-0.534,-1.222 -7.309,-20.949 -6.242,-22.041c0.484,-0.495 10.487,0.07 10.763,6.69c0.438,10.526 1.486,12.034 4.333,17.844c-1.265,-0.643 -1.159,-0.689 -2.466,-1.254c-3.7,-1.599 -3.499,-12.593 -5.944,-11.316c-1.767,0.923 1.112,8.217 0.883,8.672c-0.289,0.576 -1.038,0.829 -1.327,1.404Z" style="fill:#fefafb;"/><path d="M201.548,198.86c1.728,-0.032 1.723,-0.074 1.867,-0.034c4.689,1.303 -2.518,2.673 -2.847,2.858c-18.906,10.641 -20.096,7.573 -40.147,15.594c-1.374,0.55 -19.514,3.032 -20.058,2.367c-2.345,-2.866 11.969,-3.317 17.155,-3.997c3.469,-0.455 9.407,-4.749 22.909,-7.549c8.294,-1.72 20.755,-9.099 21.121,-9.239Z" style="fill:#fae4e2;"/><path d="M138.459,122.905c7.665,-0.965 4.036,-6.603 7.068,-6.632c0.957,-0.009 1.444,5.812 0.128,6.48c-1.905,0.967 -14.487,7.352 -25.133,9.008c-4.078,0.634 -2.128,-5.743 -1.575,-5.925c0.841,-0.277 7.47,-2.463 10.525,-3.408c2.784,-0.862 2.776,-0.241 8.986,0.478Z" style="fill:#fefdfd;"/><path d="M243.384,361.425c0.813,-0.949 7.115,-8.307 10.344,-11.701c3.03,-3.184 11.025,7.647 14.026,12.695c-4.722,-0.751 -4.184,-2.595 -8.278,-2.629c-9.448,-0.077 -9.684,-0.356 -13.18,2.313c-1.289,0.984 -1.314,0.202 -2.912,-0.679Z" style="fill:#fefefe;"/><path d="M322.903,319.594c0.232,-0.62 2.058,-5.503 4.737,-6.779c10.723,-5.106 5.499,23.062 -2.968,15.495c-3.571,-3.191 -1.719,-3.939 -1.769,-8.717Z" style="fill:#060708;"/><path d="M356.143,335.623c-0.235,-1.127 -2.212,-10.602 5.235,-13.406c12.741,-4.797 1.689,26.769 -5.235,13.406Z" style="fill:#070708;"/><path d="M215.505,315.5c-0.409,-2.288 -2.334,-8.337 3,-8.215c8.176,0.187 10.541,19.294 -0.967,17.146c-0.798,-2.006 -1.383,-1.844 -2.033,-8.931Z" style="fill:#070809;"/><path d="M120.662,86.129c-16.633,-6.758 -16.627,-6.713 -16.712,-6.852c-2.176,-3.556 12.993,3.059 14.749,2.444c0.972,-0.34 -2.423,-5.955 1.783,-4.17c19.598,8.315 19.808,7.774 21.411,8.694c9.487,5.445 -13.257,-2.653 -14.364,-3.047c-3.911,-1.393 -0.167,3.283 -0.352,4.244c-0.388,2.021 -1.242,0.551 -6.516,-1.312Z" style="fill:#2c519d;"/><path d="M215.934,273.447c2.6,5.506 4.425,1.895 10.525,1.801l-0.407,1.252c-3.596,4.582 -9.032,8.72 -20.964,6.973l-0.004,-6.007c4.706,-1.576 4.759,-1.102 9.416,-2.626l1.434,-1.393Z" style="fill:#548d30;"/><path d="M433.391,423.356c-3.877,-0.237 -5.329,-2.682 -7.77,0.244c-0.672,0.805 -5.909,7.084 -11.87,5.558c-4.543,-11.12 -4.322,-11.712 -3.351,-11.897c4.504,-0.861 1.274,10.968 7.93,8.741c8.631,-2.888 0.702,-14.62 6.247,-13.88c0.312,0.042 8.356,6.969 8.814,11.235Z" style="fill:#1c351d;fill-opacity:1;"/><path d="M303.715,374.504c2.874,-10.067 3.073,-10.136 2.651,-10.931c-1.348,-2.535 -2.754,2.62 -2.84,2.935c-2.671,9.788 -6.807,10.161 -5.962,8.007c2.865,-7.296 3.054,-7.215 3.596,-15.047c0.337,-4.871 11.368,-7.671 10.518,-3.944c-2.671,11.707 -5.548,18.406 -6.208,19.941c-0.585,-0.321 -1.171,-0.641 -1.756,-0.962Z" style="fill:#fefcfc;"/><path d="M242.661,393.552c0.153,-0.005 0.985,-1.457 2.144,0.602c2.997,5.325 7.638,1.562 11.749,2.052c2.317,0.276 2.942,-2.204 4.31,0.063c1.869,3.096 2.273,-1.509 6.728,-1.809c-0.359,6.986 -12.569,10.061 -13.959,9.552c-10.649,-3.9 -10.912,-9.249 -10.972,-10.46Z" style="fill:#fefdfd;"/><path d="M343.434,332.368c-1.335,-0.051 -1.752,0.48 -2.031,-0.807c-0.809,-3.733 -1.853,0.127 -2.863,0.287c-2.202,0.348 -0.266,-5.178 -0.274,-5.292c-0.255,-3.726 -3.28,3.842 -3.747,4.094c-2.241,1.208 0.433,-5.762 0.612,-6.229c0.794,-2.069 1.754,-8.901 3.448,-9.664c3.496,-1.575 1.557,6.601 1.616,6.87c0.879,4.035 1.828,-0.221 4.248,-4.177c0.455,-0.744 5.47,-2.304 2.352,4.197c-2.437,5.082 -1.303,5.376 -3.36,10.721Z" style="fill:#050607;"/><path d="M125.622,99.206c-18.543,-7.189 -18.38,-7.646 -18.381,-7.726c-0.049,-3.563 19.717,7.448 15.414,0.949c-2.246,-3.392 0.699,-2.407 0.884,-2.334c1.511,0.597 17.785,7.027 18.839,7.588c10.492,5.584 -10.99,-1.658 -11.905,-1.966c-3.206,-1.081 -0.307,2.713 -0.166,2.897c3.021,3.954 -4.338,0.744 -4.684,0.593Z" style="fill:#294f9c;"/><path d="M373.85,431.538c2.515,-9.365 9.888,-5.137 11.27,-1.785c4.27,10.355 -10.717,15.601 -11.27,1.785Z" style="fill:#1f3820;fill-opacity:1;"/><path d="M280.395,441.337c0.457,-0.163 3.933,-1.402 6.061,0.218c2.489,1.894 2.713,5.948 2.293,8.019c-2.301,11.329 -18.453,0.766 -8.354,-8.237Z" style="fill:#213922;fill-opacity:1;"/><path d="M253.254,159.217c5.612,-2.012 7.764,10.759 6.508,15.451c-1.067,3.987 -1.903,-0.118 -3.678,-3.902c-0.81,-1.727 -3.2,-0.324 -2.54,2.731c2.468,11.429 -10.133,-7.908 -1.958,-12.614c3.247,4.513 3.875,0.904 3.817,0.6c-0.308,-1.608 -1.094,-0.959 -2.149,-2.266Z" style="fill:#f3e521;"/><path d="M215.884,231.546c-0.016,3.655 -0.031,7.31 -0.047,10.965c-4.589,4.217 -4.991,3.515 -10.758,6.001c0.025,-3.329 0.051,-6.657 0.076,-9.986c0.202,-0.136 2.252,-1.515 2.498,-1.751c3.586,-3.453 3.422,-3.702 8.231,-5.229Z" style="fill:#66a92e;"/><path d="M371.839,340.485c-0.285,-3.717 -0.091,-3.77 -0.307,-4.008c-1.781,-1.962 -3.706,3.772 -4.018,4.041c-4.452,3.834 0.766,-6.922 1.937,-11.04c2.546,-8.955 14.136,-0.908 6.967,5.936c-3.059,2.92 -0.811,6.422 -2.244,7.722c-1.88,1.706 -1.66,-0.264 -2.335,-2.651Z" style="fill:#08090a;"/><path d="M86.049,419.335c1.855,-4.709 1.45,-6.944 6.337,-5.516c0.378,0.11 3.414,0.998 4.132,2.671c1.504,3.505 -0.283,3.293 -2.635,6.233c-0.439,0.549 1.356,4.614 -0.427,5.643c-0.458,0.264 -1.569,0.72 -3.301,-5.726c-1.152,-4.287 -3.383,5.175 -5.591,2.801c-0.947,-1.018 -0.236,-1.176 1.484,-6.107Z" style="fill:#214f25;fill-opacity:1;"/><path d="M385.563,330.365c4.016,1.669 8.03,2.676 6.492,5.993c-4.926,10.624 -6.278,12.418 -7.361,11.819c-2.739,-1.514 10.266,-16.211 1.815,-13.645c-2.937,0.892 -5.524,13.518 -8.036,10.993c-1.879,-1.889 5.659,-9.228 3.142,-14.092c-2.121,-4.098 3.655,-1.214 3.948,-1.068Z" style="fill:#090a0b;"/><path d="M223.668,450.4c-4.466,-5.345 -2.833,1.494 -3.621,2.797c-1.401,2.317 -2.116,-0.395 -2.056,-9.702c0.038,-5.96 13.137,-4.136 9.478,2.986c-2.114,4.116 0.981,4.283 0.243,7.193c-0.102,0.404 -1.477,1.989 -4.045,-3.275Z" style="fill:#1d361e;fill-opacity:1;"/><path d="M176.513,315.929c0.415,0.08 3.798,0.731 4.55,2.695c0.865,2.259 -2.448,1.287 -2.673,1.221c-7.871,-2.309 -3.105,10.883 1.113,9.663c4.432,-1.283 -1.707,-3.072 -1.382,-5.112c0.689,-4.322 8.483,1.157 5.227,6.02c-6.681,9.978 -18.246,-11.423 -6.835,-14.486Z" style="fill:#060707;"/><path d="M129.598,190.837c-6.144,1.718 -14.649,5.235 -14.817,0.687c-0.056,-1.518 0.054,-2.647 17.792,-6.616c2.518,-0.564 3.619,1.435 3.453,2.535c-0.239,1.578 -5.87,3.231 -6.428,3.395Z" style="fill:#fefefe;"/><path d="M410.07,352.449c-2.825,10.111 -13.472,4.825 -9.296,-3.836c7.195,-14.923 15.822,-1.929 11.855,-0.83c-3.088,0.855 -3.601,-6.828 -7.612,-1.678c-5.995,7.696 1.214,9.957 1.659,7.458c0.064,-0.357 -1.632,-4.975 1.808,-4c1.809,0.513 1.204,1.099 1.587,2.885Z" style="fill:#09090a;"/><path d="M163.58,322.431c0.233,0.319 6.931,9.478 4.427,2.181c-0.15,-0.436 -2.526,-7.361 0.272,-5.761c0.995,0.569 0.089,0.995 4.569,13.58c0.874,2.455 -1.427,2.787 -2.184,1.884c-0.148,-0.176 -2.012,-3.122 -4.089,-4.941c-4.546,-3.981 3.11,9.884 -1.134,7.256c-1.258,-0.779 -9.286,-22.144 -1.862,-14.2Z" style="fill:#070809;"/><path d="M397.077,339.474c-0.023,0.295 -0.747,9.568 2.26,2.925c2.327,-5.142 4.309,-4.242 4.239,-2.9c-0.046,0.894 -6.475,11.984 -7.069,13.009c-0.431,0.744 -2.707,1.682 -2.278,-2.02c0.055,-0.472 1.279,-11.026 -1.407,-5.768c-0.599,1.172 -1.08,2.402 -1.671,3.579c-1.514,3.013 -3.124,1.13 -2.742,0.207c0.256,-0.618 6.829,-13.139 6.985,-13.195c2.931,-1.049 1.692,1.08 1.682,4.165Z" style="fill:#060708;"/><path d="M277.749,313.354c0.522,-0.014 1.043,-0.028 1.565,-0.042c0.476,-2.355 0.361,-7.191 1.226,-7.721c3.054,-1.87 0.296,16.04 0.171,16.165c-2.809,2.805 -2.845,-5.997 -4.152,-6.385c-2.455,-0.729 -1.324,1.039 -1.624,5.287c-0.078,1.108 -2.698,2.331 -2.566,-1.154c0.039,-1.043 0.384,-10.159 1.15,-12.992c1.28,-4.733 4.071,6.22 4.23,6.843Z" style="fill:#08090a;"/><path d="M290.505,313.944c1.748,0.62 1.775,0.556 1.888,0.669c5.272,5.292 -7.745,14.921 -8.823,2.873c-1.375,-15.368 11.484,-12.124 10.371,-6.779c-0.075,0.361 -0.42,1.257 -4.464,-1.165c-2.786,-1.668 -4.307,4.242 -3.229,9.022c0.873,3.872 5.484,1.45 3.079,-1.953c-2.004,-2.835 0.799,-2.519 1.179,-2.668Z" style="fill:#080909;"/><path d="M214.198,316.216c-1.578,1.651 -1.534,1.703 -3.748,2.074c-3.165,0.529 -2.023,3.465 -0.849,4.009c2.804,1.3 4.452,-0.874 5.289,2.495c-9.611,5.229 -8.841,-1.491 -10.642,-12.258c-0.935,-5.587 12.414,-2.936 7.342,-0.865c-0.919,0.375 -4.873,-0.347 -4.09,2.829c0.655,2.655 2.314,-0.343 6.698,1.716Z" style="fill:#08090a;"/><path d="M412.472,221.058c0.78,0.084 9.082,0.976 5.005,8.427c-4.541,8.299 -17.489,-5.455 -5.005,-8.427Z" style="fill:#050607;"/><path d="M373.051,214.469c0.089,-0.339 0.099,-3.286 3.529,-4.759c0.348,-0.149 3.203,-1.109 5.679,1.049c6.903,6.017 -7.514,16.114 -9.209,3.709Z" style="fill:#050607;"/><path d="M255.035,308.63c3.756,12.412 3.688,13.131 2.614,13.24c-2.361,0.239 -3.989,-7.439 -6.48,-1.511c-1.415,3.368 -2.645,1.012 -2.483,0.123c1.942,-10.668 2.523,-20.651 6.349,-11.853Z" style="fill:#08090a;"/><path d="M147.116,333.647c-2.244,-5.611 -2.775,-5.639 -2.099,-6.521c2.191,-2.858 2.808,3.617 4.497,3.974c4.186,0.885 1.892,-6.405 1.95,-6.62c1.254,-4.695 7.265,13.417 7.157,14.107c-0.675,4.325 -3.399,-5.76 -6.129,-5.115c-3.602,0.85 -0.504,4.901 -0.43,5.133c0.066,0.207 -0.53,4.766 -2.716,-0.041c-1.125,-2.474 -1.094,-2.413 -2.23,-4.917Z" style="fill:#08090a;"/><path d="M233.098,313.513c-0.023,-0.477 -0.292,-5.963 -0.292,-5.963c0.969,-10.277 8.425,21.214 -3.347,15.017c-3.962,-2.085 -3.053,-15.119 -3.03,-15.139c4.151,-3.71 0.399,15.53 6.246,12.273c0.551,-0.307 0.434,-5.691 0.423,-6.187Z" style="fill:#0d0e0f;"/><path d="M398.256,432.57c0.301,7.716 -7.791,-5.392 -8.108,-1.213c-0.011,0.142 2.344,6.679 -0.484,5.732c-0.717,-0.24 -5.258,-13.877 -1.121,-12.735c1.428,0.394 8.491,10.549 5.008,0.134c-0.82,-2.453 2.613,-2.521 3.102,-0.025c0.907,4.63 0.745,4.644 0.824,5.046c0.312,1.578 0.464,1.47 0.779,3.062Z" style="fill:#1d351e;fill-opacity:1;"/><path d="M231.406,389.199c8.657,-6.081 6.81,2.064 7.159,4.293c0.484,3.091 1.271,5.404 -4.112,4.76c-0.389,-4.51 -2.501,-2.198 -6.953,-1.702c-0.348,0.039 -1.37,0.152 -3.944,-1.895c0.825,-0.777 0.839,-0.671 1.651,-1.433c0.578,0.283 0.735,1.132 1.312,1.415c0.432,0.211 6.248,-3.187 5.927,-4.135c-0.178,-0.527 -0.862,-0.777 -1.041,-1.303Z" style="fill:#ec67a3;"/><path d="M328.515,436.09c5.653,1.543 4.313,3.149 3.981,3.405c-0.148,0.114 -8.211,-2.246 -7.31,4.058c0.715,5.006 8.635,3.853 4.67,0.643c-3.657,-2.961 6.466,-3.229 4.68,2.321c-2.535,7.879 -16.955,0.285 -10.815,-7.864c2.08,-2.761 4.55,-2.52 4.795,-2.563Z" style="fill:#1d361e;fill-opacity:1;"/><path d="M187.884,440.401c1.104,4.269 2.567,2.372 2.639,2.112c1.106,-3.989 0.334,-6.43 2.75,-4.694c0.199,0.143 0.053,14.507 -3.459,12.233c-1.014,-0.657 -4.005,-11.364 -4.616,-2.602c-0.193,2.764 -3.191,2.932 -2.796,0.047c1.533,-11.2 3.157,-11.207 3.785,-10.566c1.402,1.432 1.061,1.537 1.698,3.47Z" style="fill:#1e4d23;fill-opacity:1;"/><path d="M118.701,123.289c-0.778,-2.155 -1.246,-2.946 1.708,-4.044c15.14,-5.627 15.019,-6.699 18.153,-5.947c6.867,1.648 0.151,3.053 -0.092,3.103c-3.001,0.628 -14.394,5.657 -19.769,6.887Z" style="fill:#fefefe;"/><path d="M253.475,455.099c-11.828,-0.606 -5.138,-19.119 2.984,-12.551c1.97,1.593 1.127,3.497 -1.135,2.336c-0.47,-0.241 -5.586,-2.869 -5.527,3.616c0.054,5.968 6.848,3.681 5.661,2.022c-0.288,-0.403 -0.835,-0.533 -1.236,-0.824c-3.07,-2.23 4.98,-3.358 4.47,1.821c-0.248,2.516 -4.721,3.473 -5.216,3.579Z" style="fill:#223a23;fill-opacity:1;"/><path d="M150.01,443.071c-1.813,0.939 -10.394,1.04 -8.683,-5.615c1.522,-5.922 0.743,-10.626 9.273,-7.166c2.139,0.868 1.056,2.762 -0.067,2.647c-3.737,-0.384 -6.997,-1.704 -4.791,1.406c0.292,0.412 5.58,1.018 4.298,2.745c-0.212,0.286 -13.137,0.357 -2.639,3.708c2.646,0.844 2.338,1.918 2.609,2.275Z" style="fill:#204e25;fill-opacity:1;"/><path d="M145.345,344.285c-10.168,3.428 -14.238,-18.976 -3.912,-15.502c2.456,0.826 3.754,5.149 -0.088,3.074c-7.679,-4.147 0.258,14.881 3,8.56c2.434,-5.61 3.679,0.253 2.762,1.875c-0.105,0.185 -0.13,0.148 -1.761,1.994Z" style="fill:#070809;"/><path d="M239.069,443.64c1.912,5.209 3.609,3.294 3.62,2.922c0.119,-3.941 -0.586,-4.482 0.882,-4.854c3.028,-0.767 1.82,14.009 -0.938,12.494c-0.894,-0.491 -5.25,-9.908 -5.333,-4.748c-0.006,0.375 -0.142,8.789 -1.997,4.24c-0.84,-2.059 -0.394,-17.917 3.765,-10.053Z" style="fill:#1b341c;fill-opacity:1;"/><path d="M157.764,434.389c0.096,0.336 2.059,7.218 2.947,3.223c1.213,-5.459 2.605,-4.52 2.917,-4.25c0.169,0.146 -1.089,12.277 -3.13,12.228c-2.189,-0.053 -4.162,-11.029 -5.251,-6.255c-0.094,0.411 -1.859,8.145 -2.973,4.344c-0.257,-0.876 -0.373,-1.273 2.184,-11.201c0.741,-2.877 3.163,1.642 3.307,1.912Z" style="fill:#235128;fill-opacity:1;"/><path d="M211.547,453.127c-6.903,-1.188 -5.17,-3.695 -4.442,-10.684c0.546,-5.242 8.142,-2.988 8.306,-2.839c2.817,2.583 -4.838,2.145 -5.322,2.622c-2.722,2.685 1.13,1.448 4.54,3.111c4.257,2.076 -4.669,1.93 -4.972,2.294c-2.054,2.463 4.57,2.837 5.3,3.495c2.726,2.461 -3.093,2.024 -3.408,2.001Z" style="fill:#1d361e;fill-opacity:1;"/><path d="M125.161,424.867c-0.191,1.007 -3.107,16.374 -4.921,11.829c-0.416,-1.043 2.023,-6.959 -2.776,-6.424c-1.51,0.168 -1.784,6.815 -4.105,4.371c-1.375,-1.448 4.541,-19.423 4.804,-9.115c0.075,2.955 3.52,3.726 3.939,1.835c0.54,-2.436 0.663,-3.18 3.06,-2.496Z" style="fill:#214f25;fill-opacity:1;"/><path d="M311.857,445.474c-0.083,-0.907 -1.07,-5.276 0.722,-6.866c0.554,-0.492 5.633,-1.788 7.008,-1.223c3.266,1.342 -5.105,3.34 -5.31,4.001c-0.96,3.102 4.48,1.459 5.387,1.904c2.665,1.305 -3.544,2.52 -3.913,2.592c-1.86,0.364 -1.514,3.535 2.781,2.813c5.318,-0.894 2.055,2.275 1.828,2.345c-6.412,1.987 -8.209,1.077 -8.503,-5.567Z" style="fill:#1c351d;fill-opacity:1;"/><path d="M175.21,439.047c-3.688,-2.008 -4.347,-1.914 -4.751,-1.856c-0.363,0.052 -2.805,0.401 -3.206,3.275c-0.491,3.512 6.428,9.489 4.647,1.992c-0.333,-1.4 1.712,-1.762 2.613,-0.971c5.274,4.629 -6.942,10.863 -9.374,2.129c-3.055,-10.971 13.582,-12.134 10.072,-4.569Z" style="fill:#1f4d23;fill-opacity:1;"/><path d="M314.174,139.5c-0.001,18.574 0.652,30.459 -2.416,25.847c-0.729,-1.095 -0.576,-49.093 2.416,-25.847Z" style="fill:#fdf9f8;"/><path d="M239.38,320.564c-0.425,-1.111 -4.467,-11.671 1.246,-14.813c5.501,-3.025 8.456,7.666 4.148,4.343c-0.517,-0.399 -0.925,-0.929 -1.455,-1.311c-2.014,-1.452 -4.074,2.404 -3.551,5.672c1.285,8.027 5.708,1.724 6.763,1.828c1.752,0.174 -1.381,11.096 -7.151,4.28Z" style="fill:#0a0b0c;"/><path d="M199.444,437.967c4.717,0.97 5.026,0.652 5.24,1.41c1.036,3.675 -9.344,0.317 -5.751,3.764c0.367,0.352 5.263,0.215 4.751,2.496c-0.07,0.314 -9.975,0.155 -4.895,3.525c0.036,0.024 8.227,1.452 4.567,2.965c-0.843,0.349 -8.065,-0.11 -8.386,-1.906c-0.306,-1.709 0.746,-11.197 2.406,-11.94c0.153,-0.068 0.153,-0.023 2.069,-0.314Z" style="fill:#225027;fill-opacity:1;"/><path d="M337.586,434.933c3.872,-1.029 5.157,-1.342 5.754,-1.103c3.745,1.502 -4.548,3.641 -4.616,3.786c-1.671,3.547 2.714,-0.504 5.766,1.898c3.147,2.477 -5.298,1.428 -5.164,3.987c0.179,3.409 1.842,1.611 5.191,1.17c1.908,-0.251 2.324,2.342 -0.017,2.828c-4.146,0.86 -6.614,1.489 -7.504,-3.113c-1.315,-6.804 -2.782,-7.838 0.59,-9.452Z" style="fill:#1e361f;fill-opacity:1;"/><path d="M362.794,438.484c-0.453,-3.058 -0.611,-2.929 -1.434,-5.951c-0.685,-2.515 2.237,-2.978 2.845,-0.892c1.634,5.608 3.089,-0.866 3.21,-1.185c0.551,-1.451 3.948,-2.786 2.41,1.151c-1.874,4.796 3.748,6.242 3.352,8.797c-0.529,3.412 -5.053,-3.089 -5.635,-3.192c-2.444,-0.432 -1.303,4.568 -1.509,5.045c-0.158,0.365 -2.503,2.29 -3.237,-3.773Z" style="fill:#1d361e;fill-opacity:1;"/><path d="M311.816,317.563c0.22,-0.692 2.098,-6.582 5.682,-7.075c4.196,-0.576 6.135,3.917 3.886,4.574c-1.129,0.33 -4.948,-4.984 -6.907,3.433c-1.65,7.088 5.266,3.475 5.842,4.241c2.044,2.718 -9.696,9.525 -8.503,-5.174Z" style="fill:#050607;"/><path d="M411.38,430.435c-0.091,0.013 -0.692,1.058 -1.989,0.283c-1.813,-1.083 -1.675,-1.274 -1.848,-1.333c-3.585,-1.236 -2.839,0.93 -5.138,4.016c-1.15,1.544 -1.115,-0.091 -1.755,-1.884c0.135,-3.523 0.216,-3.457 0.269,-7.013c0.109,-7.413 7.05,-2.638 10.461,5.931Z" style="fill:#1b341c;fill-opacity:1;"/><path d="M284.391,392.684c2.405,1.248 2.388,1.074 4.955,2.116c6.96,2.827 -18.639,6.825 -14.955,1.63c0.983,-1.386 10.874,2.558 6.906,-0.734c-6.168,-5.119 -3.342,-6.496 -2.782,-6.447c0.542,0.047 0.498,0.166 5.876,3.435Z" style="fill:#fefcfd;"/><path d="M162.852,144.379c3.022,3.93 2.787,4.007 6.332,7.343c0.184,0.208 1.883,2.126 2.038,2.817c0.19,0.849 -0.072,2.31 -10.808,1.161c-2.124,-0.227 -0.173,-3.76 1.983,-8.213c-0.679,-1.417 -0.805,-1.413 -0.731,-1.526c0.359,-0.552 0.827,-1.03 1.186,-1.582Z" style="fill:#fefcfc;"/><path d="M269.661,440.939c1.706,-0.303 1.693,-0.327 1.843,-0.328c3.982,-0.027 5.175,7.258 0.933,3.976c-2.719,-2.103 -5.503,1.163 -5.147,3.934c0.756,5.894 6.675,1.533 7.346,1.731c4.565,1.35 -7.545,9.283 -9.677,-0.83c-1.054,-4.997 4.039,-8.082 4.703,-8.484Z" style="fill:#223a23;fill-opacity:0.99;"/><path d="M107.466,433.016c-12.026,-1.98 -2.48,-20.057 4.883,-11.399c0.171,0.201 1.45,4.521 -3.071,1.198c-4.085,-3.003 -9.032,9.063 0.167,6.222c1.907,-0.589 1.689,1.239 1.645,1.351c-0.866,2.229 -1.332,1.814 -3.625,2.628Z" style="fill:#214f25;fill-opacity:1;"/><path d="M113.659,340.675c-0.038,0.271 -0.556,0.295 -0.594,0.566c-0.242,1.746 1.094,1.353 1.199,1.483c-8.326,3.712 8.094,16.978 1.262,15.674c-2.498,-0.477 -3.861,-10.687 -9.022,-10.665c-1.708,0.007 -3.952,-2.058 0.104,-4c5.762,-2.759 6.834,-2.966 7.052,-3.057Z" style="fill:#070809;"/><path d="M345.615,333.401c3.444,-11.554 3.693,-17.201 10.012,-14.114c5.633,2.752 -3.858,3.273 -4.005,3.398c-2.208,1.879 5.849,5.488 0.876,5.8c-5.898,0.369 -2.735,5.898 -5.947,5.569c-0.379,-0.039 -0.558,-0.614 -0.936,-0.653Z" style="fill:#070809;"/><path d="M367.116,187.513c0.025,-0.288 -0.623,-5.015 3.349,-5.394c3.296,-0.315 4.351,1.336 4.56,1.663c3.288,5.144 -6.074,12.675 -7.909,3.731Z" style="fill:#fefefe;"/><path d="M170.282,149.3c-0.199,-0.179 -0.541,0.488 -0.741,0.309c-2.63,-2.359 -3.5,-6.995 -7.908,-10.253c-4.653,-3.439 -0.607,-9.902 3.482,-5.463c1.779,1.932 -0.641,4.739 1.024,6.066c0.639,0.51 3.239,2.582 4.143,9.341Z" style="fill:#fefcfc;"/><path d="M205.077,375.849c0.289,-0.576 1.038,-0.829 1.327,-1.404c0.228,-0.455 -2.651,-7.749 -0.883,-8.672c2.445,-1.277 2.244,9.717 5.944,11.316c1.307,0.565 1.202,0.611 2.466,1.254c2.636,3.774 -4.624,6.539 -8.854,-2.493Z" style="fill:#eb64a1;"/><path d="M266.588,305.339c0.903,2.938 -2.146,2.276 -2.45,4.057c-0.247,1.451 0.723,15.453 -2.533,12.001c-1.563,-1.657 1.337,-11.66 -2.182,-13.811c-1.373,-0.839 -0.654,-2.092 -0.038,-2.298c0.969,-0.324 0.972,-0.154 7.203,0.052Z" style="fill:#090a0b;"/><path d="M350.927,185.496c-0.277,5.203 -0.434,7.445 -5.35,5.719c-3.537,-1.242 -2.865,-11.621 3.973,-8.818c1.794,0.735 1.104,1.245 1.377,3.1Z" style="fill:#fefefe;"/><path d="M395.509,182.102c6.2,1.182 4.181,9.983 -2.056,8.619c-2.723,-0.596 -2.26,-4.755 -2.257,-5.225c0.026,-4.168 3.736,-3.316 4.313,-3.394Z" style="fill:#fefefe;"/><path d="M150.445,147.403c3.955,2.833 5.125,8.175 3.155,8.394c-7.618,0.844 -7.565,-0.243 -8.184,-0.031c-0.386,0.132 -0.475,0.739 -0.861,0.871l-1.391,-0.341c3.193,-4.719 3.377,-4.443 7.281,-8.893Z" style="fill:#fefdfd;"/><path d="M164.608,186.1c5.55,1.784 3.096,5.992 -0.999,4.973c-0.101,-0.025 -11.52,-1.83 -7.364,-5.843c1.463,-1.413 6.911,0.529 8.363,0.869Z" style="fill:#fefefe;"/><path d="M127.637,425.737c2.887,-0.109 2.52,0.865 3.343,3.592c0.821,2.717 5.424,-5.162 6.183,-1.718c0.704,3.191 -2.82,1.785 -5.996,9.76c-1.264,3.173 -2.671,1.17 -2.582,0.132c0.175,-2.032 0.396,-1.947 0.496,-3.988c0.064,-1.297 -0.805,-4.239 -1.034,-4.831c-0.317,-0.821 -0.951,-1.54 -1.073,-2.411c-0.039,-0.281 0.701,-0.254 0.662,-0.535Z" style="fill:#214f26;fill-opacity:1;"/><path d="M153.531,138.53c-3.958,4.683 -3.037,5.312 -7.107,9.873c-1.454,1.629 -2.76,-1.362 2.15,-7.83c2.193,-2.888 -0.453,-3.773 0.958,-5.035c5.095,-4.556 5.853,-2.542 6.008,-2.058c0.467,1.462 -1.762,4.693 -2.009,5.051Z" style="fill:#fefdfd;"/><path d="M383.512,190.824c-6.636,-0.553 -3.984,-8.633 -1.04,-8.718c5.986,-0.172 6.277,7.635 1.04,8.718Z" style="fill:#fefefe;"/><path d="M335.512,182.14c6.94,1.432 2.544,10.904 -2.826,8.039c-0.408,-0.217 -1.523,-0.812 -1.1,-5.669c0.236,-2.707 1.261,-1.961 3.926,-2.371Z" style="fill:#fefefe;"/><path d="M359.514,190.922c-6.542,-0.506 -3.88,-8.734 -1.043,-8.816c5.741,-0.167 6.198,7.764 1.043,8.816Z" style="fill:#fefefe;"/><path d="M82.499,410.501c0.297,0.112 6.335,2.392 2.106,3.368c-5.155,1.189 -4.115,11.067 -7.183,8.747c-1.343,-1.015 2.591,-9.253 1.986,-10.07c-1.56,-2.105 -3.705,-3.164 -1.068,-3.519c0,0 3.826,1.356 4.159,1.474Z" style="fill:#214f26;fill-opacity:1;"/><path d="M310.492,449.827c0.053,2.683 -2.192,2.719 -6.975,2.49c-3.068,-0.147 -2.64,-11.409 -2.438,-12.061c1.652,-5.331 3.131,6.649 3.209,7.281c0.404,3.272 4.496,2.283 6.204,2.29Z" style="fill:#223a23;fill-opacity:1;"/><path d="M293.913,448.443c0.792,2.267 1.236,2.072 3.588,2.037c2.171,-0.033 2.906,2.504 0.924,2.746c-0.049,0.006 -6.841,1.648 -7.089,-1.698c-0.514,-6.938 -1.083,-11.764 1.124,-10.936c1.646,0.617 0.806,1.259 1.452,7.852Z" style="fill:#1a331b;fill-opacity:1;"/><path d="M364.852,328.526c-1.518,8.671 -6.157,7.178 -6.427,3.981c-0.4,-4.732 5.835,-12.749 6.427,-3.981Z" style="fill:#fefefe;"/><path d="M330.801,322.602c-4.056,7.327 -5.331,1.344 -5.392,0.911c-0.462,-3.246 1.603,-8.078 4.057,-7.817c2.873,0.306 1.463,6.358 1.335,6.906Z" style="fill:#fefefe;"/><path d="M285.873,449.624c-4.067,7.998 -9.436,-6.039 -2.39,-6.32c3.649,-0.145 2.493,5.789 2.39,6.32Z" style="fill:#f7f8f6;fill-opacity:1;"/><path d="M377.201,430.343c0.111,-0.125 0.959,-2.018 3.23,-1.59c1.595,0.3 2.663,2.254 2.824,3.778c0.723,6.863 -8.638,4.84 -6.054,-2.188Z" style="fill:#fefefe;fill-opacity:1;"/><path d="M291.506,388.559c-10.445,-0.467 7.562,-6.353 10.808,-0.981c0.792,1.31 -1.743,2.432 -1.979,2.536c-1.721,0.762 -1.73,0.534 -3.517,-0.105c-1.384,-1.692 -1.413,-2.844 -5.313,-1.45Z" style="fill:#fceef4;"/><path d="M218.112,316.529c-0.225,-4.457 -0.379,-4.45 -0.243,-4.811c1.858,-4.939 7.672,6.572 3.323,9.291c-3.236,2.023 -2.624,-0.728 -3.08,-4.48Z" style="fill:#fefefe;"/><path d="M215.505,315.5c0.65,7.087 1.236,6.925 2.033,8.931c-1.387,0.028 -1.31,-0.013 -2.648,0.364c-0.838,-3.37 -2.485,-1.195 -5.289,-2.495c-1.174,-0.544 -2.316,-3.48 0.849,-4.009c2.214,-0.37 2.17,-0.423 3.748,-2.074l1.307,-0.716Z" style="fill:#f9f9f9;"/><path d="M269.512,305.602c1.046,0.656 2.636,1.654 0.609,15.418c-0.127,0.864 -2.369,0.991 -2.375,-0.562c-0.037,-10.41 1.316,-13.747 1.766,-14.856Z" style="fill:#080909;"/><path d="M350.735,115.518c1.077,-0.279 6.396,-1.658 13.898,-0.427c2.197,0.36 1.585,2.36 -1.143,2.302c-10.637,-0.228 -11.991,1.329 -12.755,-1.875Z" style="fill:#244a9a;"/><path d="M223.557,394.655c2.574,2.047 3.596,1.933 3.944,1.895c4.452,-0.495 6.564,-2.807 6.953,1.702c-14.969,1.653 -14.714,-2.738 -13.716,-3.263c0.051,-0.027 2.594,-0.309 2.82,-0.334Z" style="fill:#fbeef4;"/><path d="M203.355,181.985c0.1,0.181 1.25,2.266 1.25,2.266c0.308,0.065 0.264,-0.816 0.572,-0.751l1.718,-1.004c-0.956,3.894 -1.372,12.191 -4.328,8.96c-0.433,-0.473 -0.147,-0.552 -1.005,-7.955c-0.185,-1.597 0.255,-1.705 1.793,-1.516Z" style="fill:#ac3f23;"/><path d="M213.458,385.177c0.575,0.825 1.15,1.651 1.725,2.476c8.793,4.61 -8.164,4.151 -6.803,-0.205c0.284,-0.909 0.595,-0.629 5.079,-2.271Z" style="fill:#fefcfc;"/><path d="M160.145,329.624c1.539,4.211 2.775,7.547 2.469,7.971c-2.028,2.809 -6.866,-13.86 -6.828,-13.963c1.389,-3.754 4.268,5.74 4.359,5.991Z" style="fill:#040506;"/><path d="M435.646,422.062c-1.496,-3.655 -5.717,-12.034 -3.133,-12.224c1.895,-0.139 4.473,8.906 4.71,9.739c1.057,3.71 -1.553,2.486 -1.577,2.485Z" style="fill:#1d2f1a;fill-opacity:1;"/><path d="M97.742,423.57c2.528,-5.982 2.275,-8.361 4.075,-6.461c0.717,0.756 0.14,2.305 0.07,2.491c-3.366,9.031 -2.932,9.178 -3.531,9.751c-2.57,2.46 -0.722,-5.329 -0.614,-5.781Z" style="fill:#1c4b21;fill-opacity:1;"/><path d="M272.397,155.226c-11.542,2.007 3.969,-7.774 5.242,-3.781c0.897,2.813 -3.251,3.271 -5.242,3.781Z" style="fill:#ef7f13;"/><path d="M178.801,439.582c0.084,-0.322 1.818,-6.988 2.757,-3.114c0.37,1.529 -1.608,11.498 -2.134,11.947c-3.011,2.573 -0.768,-8.14 -0.623,-8.833Z" style="fill:#1e4d23;fill-opacity:1;"/><path d="M265.338,143.417c-1.863,3.062 -1.496,5.93 -4.219,3.518c-2.62,-2.32 6.257,-13.018 5.545,-6.418c-0.027,0.254 -0.098,0.215 -1.325,2.9Z" style="fill:#e52c1f;"/><path d="M230.318,449.492c0.311,-4.785 0.471,-8.092 1.041,-8.245c2.517,-0.677 1.523,7.99 1.466,10.274c-0.318,12.777 -2.502,-1.771 -2.506,-2.029Z" style="fill:#1b341c;fill-opacity:1;"/><path d="M269.311,145.26c2.083,-1.29 2.044,-1.341 2.25,-1.393c0.422,-0.106 4.631,1.535 -1.79,5.13c-11.409,6.389 -0.693,-3.546 -0.46,-3.737Z" style="fill:#e52b1e;"/><path d="M258.21,142.491c-1.857,6.762 -3.816,1.335 -3.828,1.019c-0.321,-8.01 3.251,-5.725 3.552,-5.311c0.425,0.584 0.232,0.62 0.276,4.292Z" style="fill:#e52b1e;"/><path d="M272.422,174.672c-0.257,-0.142 -2.631,-1.452 -2.967,-2.149c-2.125,-4.41 8.233,0.398 8.746,1.15c0.264,0.388 0.627,3.119 -5.779,0.999Z" style="fill:#f3e721;"/><path d="M276.505,161.964c-0.541,-0.009 -6.513,-0.109 -6.591,-1.491c-0.158,-2.789 12.527,-2.306 9.474,0.919c-0.37,0.391 -2.648,0.555 -2.883,0.572Z" style="fill:#f3e721;"/><path d="M238.661,155.059c-3.713,-1.584 -3.752,-1.474 -4.009,-1.71c-3.583,-3.302 5.308,-2.54 8.018,-0.005c0.255,0.238 1.538,3.402 -4.01,1.715Z" style="fill:#ef8014;"/><path d="M275.553,169.054c-5.746,-1.918 -5.134,-3.001 -4.84,-3.371c2.03,-2.55 16.649,3.867 4.84,3.371Z" style="fill:#f3e722;"/><path d="M236.438,169.017c-0.347,0.017 -6.644,0.328 -3.713,-2.247c0.67,-0.589 5.847,-2.103 7.818,-1.341c3.532,1.366 -3.687,3.466 -4.105,3.588Z" style="fill:#f3e824;"/><path d="M184.055,191.502c-0.052,0.26 -0.997,4.996 -3.208,0.823c-0.609,-1.15 -1.01,-7.621 0.649,-7.612c1.555,0.008 2.474,6.214 2.559,6.788Z" style="fill:#ad4024;"/><path d="M235.496,162.042c-0.325,-0.044 -6.569,-0.895 -3.105,-2.678c2.589,-1.332 11.008,-0.428 8.137,2.17c-0,0 -4.629,0.467 -5.032,0.507Z" style="fill:#f4e821;"/><path d="M238.617,174.91c-0.39,0.076 -6.371,1.238 -4.818,-1.187c0.059,-0.093 10.359,-5.701 8.887,-1.142c-0.226,0.7 -3.724,2.183 -4.07,2.329Z" style="fill:#f3e722;"/><path d="M241.375,148.661c-1.474,-1.3 -1.634,-1.109 -2.041,-2.092c-2.168,-5.233 7.394,1.693 7.533,2.865c0.399,3.374 -5.129,-0.518 -5.492,-0.773Z" style="fill:#e52b1e;"/><path d="M77.069,255.007c-0.294,0.268 -6.262,5.704 -4.77,1.403c0.726,-2.092 9.938,-8.18 7.751,-4.105c-0,0 -2.743,2.486 -2.981,2.703Z" style="fill:#fae2e1;"/><path d="M291.506,388.559c3.9,-1.394 3.929,-0.242 5.313,1.45c-0.005,0.005 -0.843,2.138 -3.301,2.129c-0.243,-0.001 -2.343,-0.008 -2.96,-0.691c-0.95,-1.051 -0.043,-1.11 -0.057,-1.473l1.006,-1.416Z" style="fill:#e02c74;"/><path d="M142.56,197.518c-1.019,2.327 -0.29,2.371 -0.116,4.909c-6.795,-0.47 -3.094,-4.904 -1.876,-5.812c2.443,-1.82 1.962,0.466 1.992,0.903Z" style="fill:#b34f36;"/><path d="M153.569,110.641c-3.198,0.057 -2.999,-0.935 -3.059,-4.139c-0.024,-1.294 2.199,-3.293 2.028,-0.032c-0.106,2.027 4.082,0.826 2.752,2.917c-0.091,0.144 -0.128,0.093 -1.722,1.254Z" style="fill:#fbe7e6;"/><path d="M152.411,144.465c0.17,-0.247 3.152,-4.573 3.578,-1.124c0.051,0.409 0.917,7.407 -1.382,4.962c-0.116,-0.123 0.108,-0.241 -1.11,-1.8c-0.758,-0.97 -0.535,-1.004 -1.087,-2.038Z" style="fill:#fefefe;"/><path d="M231.406,389.199c0.178,0.527 0.862,0.777 1.041,1.303c0.321,0.948 -5.495,4.346 -5.927,4.135c-0.578,-0.283 -0.735,-1.132 -1.312,-1.415c1.908,-1.432 1.92,-1.335 6.199,-4.023Z" style="fill:#f9e1eb;"/><path d="M168.882,121.508c-0.241,-3.703 -0.272,-3.642 -0.131,-3.923c0.486,-0.973 1.727,-0.949 1.927,-0.248c0.529,1.86 0.223,1.909 1.365,3.479c0.97,1.334 -0.865,5.071 -3.161,0.692Z" style="fill:#fbe9e7;"/><path d="M162.852,144.379c-0.359,0.552 -0.827,1.03 -1.186,1.582c-0.074,0.113 0.052,0.109 0.731,1.526c-0.218,-0.012 -2.567,-0.143 -2.72,-0.238c-0.388,-0.24 -2.157,-11.265 3.175,-2.871Z" style="fill:#fae2e1;"/><path d="M386.672,129.31c0.277,0.161 7.327,4.252 1.826,3.56c-2.111,-0.266 -3.762,-2.083 -4.012,-2.358c-3.851,-4.24 2.008,-1.291 2.186,-1.201Z" style="fill:#4f6ead;"/><path d="M144.933,195.515c0,0.559 0.001,3.985 0.117,6.992c-0.868,-0.027 -1.737,-0.053 -2.605,-0.08c-0.174,-2.538 -0.903,-2.582 0.116,-4.909c3.029,-1.283 2.286,-1.926 2.373,-2.003Z" style="fill:#f7d9d6;"/><path d="M372.347,332.744c-3.026,-4.056 1.735,-3.986 2.343,-3.541c2.84,2.075 1.168,3.548 -2.343,3.541Z" style="fill:#fcfcfc;"/><path d="M303.715,374.504c0.585,0.321 1.171,0.641 1.756,0.962c-1.278,2.394 -1.07,2.458 -2.243,3.719c-8.244,8.862 0.283,-4.364 0.487,-4.681Z" style="fill:#e95d9a;"/><path d="M91.436,419.684c-1.616,-1.273 -2.76,-1.209 -1.634,-2.963c1.216,-1.895 8.087,2.328 1.634,2.963Z" style="fill:#fafbfb;fill-opacity:1;"/><path d="M223.586,445.91c-5.849,-0.729 -1.286,-2.944 -1.036,-2.972c2.897,-0.334 3.614,1.65 1.036,2.972Z" style="fill:#f7f6f6;fill-opacity:1;"/><path d="M142.903,162.375c-1.124,5.341 -3.109,2.284 -3.175,1.991c-0.226,-1.013 1.14,-3.407 1.748,-3.212c0.596,0.191 0.831,1.03 1.427,1.221Z" style="fill:#fefdfd;"/><path d="M162.451,108.164c5.187,1.658 1.279,3.155 1.014,3.193c-2.827,0.411 -3.199,-1.333 -1.014,-3.193Z" style="fill:#fdf9f8;"/><path d="M145.121,106.144c2.442,4.35 -0.899,3.585 -1.433,3.114c-1.018,-0.898 -1.132,-0.6 -2.311,-1.225c0.281,-0.183 0.382,0.044 3.744,-1.889Z" style="fill:#f4aea9;"/><path d="M143.163,156.297l1.391,0.341c0.984,2.067 1.562,2.297 0.017,4.036c-2.179,-1.442 -1.979,-1.775 -1.408,-4.377Z" style="fill:#fbe7e6;"/><path d="M137.515,173.512c-0.351,-0.769 -0.749,-0.344 -1.077,-1.062c-0.024,-0.052 -0.025,-0.054 0.294,-0.653c0.908,-1.707 1.447,-3.548 1.868,-3.864c3.228,-2.418 -0.869,5.179 -1.085,5.579Z" style="fill:#fadddb;"/><path d="M253.254,159.217c1.055,1.308 1.841,0.658 2.149,2.266c0.058,0.304 -0.57,3.913 -3.817,-0.6c0.556,-0.555 1.112,-1.111 1.668,-1.666Z" style="fill:#e74d1e;"/><path d="M359.834,119.726c1.468,0.086 1.656,-0.34 2.451,0.838c0.358,0.531 0.691,0.624 0.149,0.875c-0.161,0.074 -1.313,0.607 -1.922,1.1c-2.77,2.245 -0.767,-2.599 -0.678,-2.813Z" style="fill:#4666a9;"/><path d="M152.596,125.949c1.581,0.428 2.365,0.024 2.025,1.591c-0.238,1.094 -6.247,2.145 -2.025,-1.591Z" style="fill:#fdf6f5;"/><path d="M153.477,160.459c-2.005,0.187 -2.892,1.04 -2.996,-0.958c-0.061,-1.171 1.809,-1.284 2,-1.295c4.337,-0.261 1.153,2.135 0.996,2.254Z" style="fill:#fdf8f7;"/><path d="M163.428,123.247c-0.204,0.018 -6.988,0.63 -1.904,-1.711c2.284,-1.051 4.116,0.419 1.904,1.711Z" style="fill:#fadddb;"/><path d="M153.241,117.167c-4.429,0.704 -2.226,-2.771 -0.75,-2.614c1.747,0.185 1.248,0.889 0.75,2.614Z" style="fill:#fdfcfc;"/><path d="M162.975,104.731c-0.462,0.182 -0.721,1.364 -2.478,-0.228c-0.154,-0.14 -1.634,-1.481 -1.631,-2.027c0.012,-2.715 3.871,1.965 4.109,2.255Z" style="fill:#f3a8a3;"/><path d="M161.932,117.011c-0.911,-1.731 -1.334,-2.742 0.57,-2.533c1.321,0.145 4.118,4.37 -0.57,2.533Z" style="fill:#fdf7f7;"/><path d="M354.582,441.92c-5.259,-1.836 0.848,-3.401 1.559,-2.177c0.874,1.505 -0.087,1.375 -1.559,2.177Z" style="fill:#253d26;fill-opacity:1;"/><path d="M155.419,162.601c0.074,0.371 0.516,0.599 0.59,0.971c0.586,2.946 -4.995,1.541 -2.896,-0.334c0.908,-0.811 0.974,-0.476 2.306,-0.637Z" style="fill:#fdfcfc;"/><path d="M203.355,181.985c2.03,-1.133 2.733,-1.681 3.54,0.511l-1.718,1.004c-0.308,-0.065 -0.264,0.816 -0.572,0.751c0,0 -1.15,-2.084 -1.25,-2.266Z" style="fill:#d8a79a;"/><path d="M169.616,158.618c2.079,-0.769 3.322,-1.295 2.878,0.882c-0.345,1.688 -3.458,1.538 -3.427,-0.113c0.006,-0.315 0.543,-0.454 0.549,-0.769Z" style="fill:#fdfbfb;"/><path d="M425.677,420.043c-2.351,-2.288 -0.418,-3.475 0.879,-2.628c1.818,1.187 1.229,2.121 -0.879,2.628Z" style="fill:#fafbfa;fill-opacity:0.99;"/><path d="M130.356,342.978c-0.111,-0.143 -4.927,-8.796 0.768,-2.13c1.062,1.243 0.906,1.881 -0.768,2.13Z" style="fill:#d8d8d8;"/><path d="M162.42,126.359c1.474,0.22 2.406,-0.267 1.894,1.098c-0.573,1.529 -4.148,1.648 -1.894,-1.098Z" style="fill:#fcedec;"/><path d="M405.417,425.532c-0.967,4.253 -2.657,-0.321 -1.835,-0.891c1.049,-0.727 1,-0.009 1.835,0.891Z" style="fill:#f5f6f5;fill-opacity:0.99;"/><path d="M252.624,315.335c-0.808,-3.63 0.7,-3.126 0.933,-3.026c1.618,0.697 0.065,2.917 -0.078,3.122l-0.855,-0.096Z" style="fill:#e2e2e2;"/><path d="M213.458,385.177c0.231,-0.085 4.117,-1.514 3.057,0.326c-0.257,0.446 -0.936,0.525 -1.207,0.962c-0.21,0.338 0.084,0.849 -0.126,1.187c-0.575,-0.825 -1.15,-1.651 -1.725,-2.476Z" style="fill:#ef9cbb;"/><path d="M50.628,280.533c0.314,1.5 0.308,1.458 -0.001,2.934c-0.112,-1.501 -0.114,-1.42 0.001,-2.934Z" style="fill:#d0100b;fill-opacity:0.27;"/></g></g></svg>